<svg width="130" height="99" fill="none" xmlns="http://www.w3.org/2000/svg"><rect x="2" y="2" width="126" height="95" rx="6" fill="url(#a)" stroke="#000" stroke-width="4"/><path d="M112.5 55.2499H89.6c-.3693 0-.7085.2036-.8823.5294L74.1759 83.0451c-.4247.7964-1.6038.667-1.8457-.2025L57.5818 29.8407c-.2289-.8225-1.3166-.9984-1.7931-.2901L38.7972 54.8081c-.1858.2762-.4968.4418-.8297.4418H18" stroke="#17DD7E" stroke-width="4" stroke-linecap="round"/><g style="mix-blend-mode:soft-light" filter="url(#b)"><path d="M4 8c0-2.20914 1.79086-4 4-4h114c2.209 0 4 1.79086 4 4v8H4V8Z" fill="#C4C4C4"/></g><path d="M9.88 13.112c1.2 0 2.112-.648 2.112-2.528V7.136h-.712v3.472c0 1.408-.624 1.848-1.4 1.848-.768 0-1.368-.44-1.368-1.848V7.136h-.736v3.448c0 1.88.912 2.528 2.104 2.528ZM15.2587 13h3.216v-.608h-1.184V7.304h-.56c-.312.184-.688.32-1.216.416v.472h1.048v4.2h-1.304V13Zm4.0855 0h3.68v-.624h-1.656c-.296 0-.656.024-.96.056 1.352-1.424 2.336-2.488 2.336-3.56 0-1.016-.656-1.672-1.704-1.672-.744 0-1.256.336-1.736.856l.424.416c.328-.384.744-.688 1.224-.688.728 0 1.072.464 1.072 1.112 0 .936-.96 1.968-2.68 3.68V13Zm5.7255-2.272c.808 0 1.336-.672 1.336-1.856 0-1.176-.528-1.84-1.336-1.84s-1.336.664-1.336 1.84c0 1.184.528 1.856 1.336 1.856Zm0-.448c-.464 0-.784-.48-.784-1.408 0-.936.32-1.392.784-1.392s.776.456.776 1.392c0 .928-.312 1.408-.776 1.408Zm.168 2.832h.496l3.232-6.08h-.496l-3.232 6.08Zm3.92 0c.792 0 1.328-.672 1.328-1.864 0-1.168-.536-1.84-1.328-1.84-.808 0-1.336.672-1.336 1.84 0 1.192.528 1.864 1.336 1.864Zm0-.448c-.464 0-.784-.48-.784-1.416 0-.936.32-1.384.784-1.384.456 0 .776.448.776 1.384 0 .936-.32 1.416-.776 1.416Zm4.2282.336h.672V9.76c0-.512-.056-1.216-.096-1.736h.032l.464 1.336 1.112 3.056h.496l1.112-3.056.464-1.336h.04c-.04.52-.096 1.224-.096 1.736V13h.688V7.136h-.896l-1.112 3.144c-.136.4-.264.808-.408 1.224h-.032c-.144-.416-.28-.824-.424-1.224l-1.128-3.144h-.888V13Zm9.5853.112c1.048 0 1.888-.616 1.888-1.632 0-.776-.56-1.288-1.248-1.448V10c.624-.232 1.04-.672 1.04-1.36 0-.92-.72-1.44-1.704-1.44-.672 0-1.192.296-1.632.704l.392.464c.328-.336.744-.584 1.216-.584.608 0 .984.352.984.904 0 .6-.408 1.072-1.616 1.072v.56c1.352 0 1.824.456 1.824 1.136 0 .64-.496 1.048-1.192 1.048-.672 0-1.112-.32-1.456-.68l-.368.48c.384.424.952.808 1.872.808ZM48.0167 13h.688V7.304h-.808l-2.44 3.64v.48h4.032v-.576h-3.264l1.336-1.96c.16-.28.32-.536.464-.8h.04c-.024.296-.048.792-.048 1.088V13Zm3.3655-2.272c.808 0 1.336-.672 1.336-1.856 0-1.176-.528-1.84-1.336-1.84s-1.336.664-1.336 1.84c0 1.184.528 1.856 1.336 1.856Zm0-.448c-.464 0-.784-.48-.784-1.408 0-.936.32-1.392.784-1.392s.776.456.776 1.392c0 .928-.312 1.408-.776 1.408Zm.168 2.832h.496l3.232-6.08h-.496l-3.232 6.08Zm3.92 0c.792 0 1.328-.672 1.328-1.864 0-1.168-.536-1.84-1.328-1.84-.808 0-1.336.672-1.336 1.84 0 1.192.528 1.864 1.336 1.864Zm0-.448c-.464 0-.784-.48-.784-1.416 0-.936.32-1.384.784-1.384.456 0 .776.448.776 1.384 0 .936-.32 1.416-.776 1.416Zm7.7002-.208V6.28h-.552v6.176c-.304-.416-.816-.936-1.304-1.304l-.288.48c.704.544 1.416 1.336 1.872 2.048.448-.712 1.16-1.504 1.864-2.048l-.288-.48c-.488.368-1 .888-1.304 1.304Zm7.6051.656c.984 0 1.92-.696 1.92-1.936 0-1.232-.792-1.784-1.768-1.784-.352 0-.616.088-.88.232l.152-1.696h2.216v-.624h-2.856l-.184 2.744.392.248c.336-.224.584-.352.976-.352.728 0 1.208.472 1.208 1.256 0 .8-.552 1.304-1.248 1.304-.672 0-1.104-.312-1.432-.656l-.368.48c.4.4.96.784 1.872.784Zm4.7495 0c.904 0 1.68-.736 1.68-1.832 0-1.168-.648-1.76-1.632-1.76-.48 0-1.008.296-1.376.776l.024.584c.4-.592.864-.816 1.232-.816.712 0 1.064.472 1.064 1.216 0 .752-.432 1.256-1 1.256-.824 0-1.272-.76-1.272-2.168 0-1.92.688-2.56 1.504-2.56.36 0 .712.168.944.44l.4-.456c-.312-.336-.76-.592-1.368-.592-1.136 0-2.176.872-2.176 3.168 0 1.832.848 2.744 1.976 2.744ZM78.3625 13h1.872c1.304 0 2.216-.568 2.216-1.712 0-.8-.488-1.272-1.192-1.408v-.032c.552-.184.856-.696.856-1.272 0-1.032-.824-1.44-2.016-1.44h-1.736V13Zm.744-3.368V7.72h.904c.912 0 1.376.256 1.376.944 0 .6-.408.968-1.416.968h-.864Zm0 2.784V10.2h1.024c1.024 0 1.6.336 1.6 1.064 0 .792-.6 1.152-1.6 1.152h-1.024Zm3.8018 2.016h.528l2.392-7.784h-.52l-2.4 7.784Zm4.9168-1.32c1.024 0 1.576-.584 1.576-1.296 0-.824-.688-1.08-1.32-1.32-.496-.176-.936-.336-.936-.752 0-.336.248-.624.8-.624.384 0 .696.168.992.384l.352-.464c-.336-.272-.816-.488-1.352-.488-.944 0-1.496.536-1.496 1.224 0 .744.664 1.032 1.264 1.264.48.176 1 .376 1 .816 0 .384-.288.688-.864.688-.52 0-.904-.216-1.28-.52l-.36.488c.408.336 1.008.6 1.624.6Zm7.3793-5.64v6.168h.552V7.472c.304.416.816.936 1.304 1.304l.288-.48c-.704-.544-1.416-1.336-1.864-2.056-.456.72-1.168 1.512-1.872 2.056l.288.48c.488-.368 1-.888 1.304-1.304ZM102.849 13h.76c.096-2.224.376-3.528 1.72-5.248v-.448h-3.664v.624h2.84c-1.12 1.56-1.552 2.928-1.656 5.072Zm5.094.112c1.096 0 1.84-.664 1.84-1.52 0-.768-.488-1.168-.992-1.472v-.04c.344-.264.784-.768.784-1.368 0-.888-.608-1.512-1.608-1.512-.92 0-1.616.576-1.616 1.456 0 .6.376 1.024.8 1.32v.032c-.536.28-1.08.792-1.08 1.544 0 .904.792 1.56 1.872 1.56Zm.4-3.216c-.688-.272-1.32-.56-1.32-1.24 0-.552.392-.92.928-.92.632 0 1 .448 1 1.008 0 .424-.216.8-.608 1.152Zm-.384 2.664c-.704 0-1.232-.456-1.232-1.08 0-.528.336-.944.808-1.248.824.336 1.544.592 1.544 1.336 0 .584-.448.992-1.12.992Zm2.989.44h1.872c1.304 0 2.216-.568 2.216-1.712 0-.8-.488-1.272-1.192-1.408v-.032c.552-.184.856-.696.856-1.272 0-1.032-.824-1.44-2.016-1.44h-1.736V13Zm.744-3.368V7.72h.904c.912 0 1.376.256 1.376.944 0 .6-.408.968-1.416.968h-.864Zm0 2.784V10.2h1.024c1.024 0 1.6.336 1.6 1.064 0 .792-.6 1.152-1.6 1.152h-1.024Zm3.802 2.016h.528l2.392-7.784h-.52l-2.4 7.784Zm4.917-1.32c1.024 0 1.576-.584 1.576-1.296 0-.824-.688-1.08-1.32-1.32-.496-.176-.936-.336-.936-.752 0-.336.248-.624.8-.624.384 0 .696.168.992.384l.352-.464c-.336-.272-.816-.488-1.352-.488-.944 0-1.496.536-1.496 1.224 0 .744.664 1.032 1.264 1.264.48.176 1 .376 1 .816 0 .384-.288.688-.864.688-.52 0-.904-.216-1.28-.52l-.36.488c.408.336 1.008.6 1.624.6Z" fill="#fff" fill-opacity=".9" style="mix-blend-mode:overlay"/><defs><linearGradient id="a" x1="65" y1="0" x2="65" y2="99" gradientUnits="userSpaceOnUse"><stop stop-color="#606060"/><stop offset="1" stop-color="#212121"/></linearGradient><filter id="b" x="0" y="1" width="130" height="20" filterUnits="userSpaceOnUse" color-interpolation-filters="sRGB"><feFlood flood-opacity="0" result="BackgroundImageFix"/><feColorMatrix in="SourceAlpha" values="0 0 0 0 0 0 0 0 0 0 0 0 0 0 0 0 0 0 127 0" result="hardAlpha"/><feOffset dy="1"/><feGaussianBlur stdDeviation="2"/><feComposite in2="hardAlpha" operator="out"/><feColorMatrix values="0 0 0 0 0 0 0 0 0 0 0 0 0 0 0 0 0 0 0.1 0"/><feBlend in2="BackgroundImageFix" result="effect1_dropShadow_190_29"/><feBlend in="SourceGraphic" in2="effect1_dropShadow_190_29" result="shape"/></filter></defs></svg>